<svg xmlns="http://www.w3.org/2000/svg" viewBox="0 0 64 64">
  <path fill="var(--nr-icon-brand, #2f99a4)" d="M10 8a6 6 0 0 0-6 6v36a6 6 0 0 0 6 6h10v-8h-8V16h8V8H10Zm34 0v8h8v32h-8v8h10a6 6 0 0 0 6-6V14a6 6 0 0 0-6-6H44Z"/>
  <path fill="currentColor" d="M18 46V20h8l1 4c3-3.2 6.8-4.8 11.2-4.8C45.8 19.2 50 24 50 32.6V46h-8V33.6c0-4.4-1.8-6.6-5.6-6.6-3.2 0-6.8 2.2-9.4 5.8V46h-9Z"/>
  <path fill="var(--icon-color-accent, #ff8700)" d="M42 12c1.1 5.4 3.9 8.2 9.3 9.3-5.4 1.1-8.2 3.9-9.3 9.3-1.1-5.4-3.9-8.2-9.3-9.3 5.4-1.1 8.2-3.9 9.3-9.3Z"/>
</svg>
